<svg width="1248" height="274" viewBox="0 0 1248 274" fill="none" xmlns="http://www.w3.org/2000/svg">
    <path d="M5 206L209 104L347 172L139 274L5 206Z" fill="#6936BE"/>
    <path d="M5 206V177L47 171.5L47.5 205L5 206Z" fill="#6936BE"/>
    <path d="M347 172V143L302.5 146.5L300 169L347 172Z" fill="#6936BE"/>
    <path d="M5 177L209 75L347 143L139 245L5 177Z" fill="url(#paint0_linear_205_28)"/>
    <path d="M139 274V245L20.5 184.5V214L139 274Z" fill="url(#paint1_linear_205_28)"/>
    <path d="M37.9136 176.58L42.0358 174.2L47.9594 177.62L60.6727 170.28L55.7883 167.46L58.9406 165.64C59.7951 166 60.5688 166.313 61.2616 166.58C62.0006 166.847 62.6934 167.073 63.3401 167.26C63.9867 167.447 64.6102 167.607 65.2107 167.74C65.8573 167.873 66.5155 167.987 67.1852 168.08L70.9264 170.24L53.0517 180.56L58.04 183.44L53.9177 185.82L37.9136 176.58Z" fill="#E9E9E9"/>
    <path d="M275.914 145.58L280.036 143.2L285.959 146.62L298.673 139.28L293.788 136.46L296.941 134.64C297.795 135 298.569 135.313 299.262 135.58C300.001 135.847 300.693 136.073 301.34 136.26C301.987 136.447 302.61 136.607 303.211 136.74C303.857 136.873 304.515 136.987 305.185 137.08L308.926 139.24L291.052 149.56L296.04 152.44L291.918 154.82L275.914 145.58Z" fill="#E9E9E9"/>
    <path d="M2 138.5L206.5 36L275 70.5L172.5 121.5L241 156L138.5 207L2 138.5Z" fill="#CBCBCB"/>
    <path d="M275 70.5V40.5L219 38L217 45L212.5 71.5L275 70.5Z" fill="#CBCBCB"/>
    <path d="M2 138.5V108.5L62.5 105L63.5 140.5L2 138.5Z" fill="#CBCBCB"/>
    <path d="M241 156V126L189 117.5L185.5 156H241Z" fill="#CBCBCB"/>
    <path d="M2 108.5L206.5 6L275 40.5L172.5 91.5L241 126L138.5 177L2 108.5Z" fill="url(#paint2_linear_205_28)"/>
    <path d="M138.5 207V177L24 119.5L21 148L138.5 207Z" fill="url(#paint3_linear_205_28)"/>
    <path d="M343 77L275 43L173 94L241 128.5L343 77Z" fill="#CBCBCB"/>
    <path d="M343 77V46L287.5 38.5L284 76.5L343 77Z" fill="#CBCBCB"/>
    <path d="M172.5 93.5L173 63L224 54.5L229 71.5L233 94.5L172.5 93.5Z" fill="#CBCBCB"/>
    <path d="M343 46L275 12L173 63L241 97.5L343 46Z" fill="url(#paint4_linear_205_28)"/>
    <path d="M241 128.5V97.5L183 68L181.5 98L241 128.5Z" fill="url(#paint5_linear_205_28)"/>
    <path d="M33.9136 107.58L38.0358 105.2L43.9594 108.62L56.6727 101.28L51.7883 98.46L54.9406 96.64C55.7951 97 56.5688 97.3133 57.2616 97.58C58.0006 97.8467 58.6934 98.0733 59.3401 98.26C59.9867 98.4467 60.6102 98.6067 61.2107 98.74C61.8573 98.8733 62.5155 98.9867 63.1852 99.08L66.9264 101.24L49.0517 111.56L54.04 114.44L49.9177 116.82L33.9136 107.58Z" fill="#9D67F5"/>
    <path d="M277.914 48.58L282.036 46.2L287.959 49.62L300.673 42.28L295.788 39.46L298.941 37.64C299.795 38 300.569 38.3133 301.262 38.58C302.001 38.8467 302.693 39.0733 303.34 39.26C303.987 39.4467 304.61 39.6067 305.211 39.74C305.857 39.8733 306.515 39.9867 307.185 40.08L310.926 42.24L293.052 52.56L298.04 55.44L293.918 57.82L277.914 48.58Z" fill="#9D67F5"/>
    <path d="M192.154 38.24C190.883 37.5067 189.971 36.7 189.417 35.82C188.886 34.9267 188.736 33.9867 188.967 33C189.197 32.0133 189.821 30.9867 190.837 29.92C191.876 28.8667 193.331 27.8 195.202 26.72C197.073 25.64 198.909 24.8067 200.71 24.22C202.534 23.6467 204.289 23.3 205.975 23.18C207.684 23.0467 209.289 23.1467 210.79 23.48C212.315 23.8 213.712 24.3267 214.982 25.06C216.252 25.7933 217.164 26.6 217.719 27.48C218.296 28.3467 218.469 29.2733 218.238 30.26C218.03 31.2333 217.418 32.24 216.402 33.28C215.409 34.3333 213.977 35.4 212.107 36.48C210.236 37.56 208.377 38.3933 206.53 38.98C204.705 39.58 202.938 39.9467 201.229 40.08C199.521 40.2133 197.892 40.1267 196.345 39.82C194.821 39.5 193.424 38.9733 192.154 38.24ZM196.103 35.96C196.657 36.28 197.292 36.5 198.008 36.62C198.747 36.7533 199.578 36.7533 200.502 36.62C201.449 36.4733 202.5 36.1867 203.654 35.76C204.832 35.32 206.137 34.6867 207.569 33.86C209.001 33.0333 210.086 32.2867 210.825 31.62C211.564 30.9533 212.037 30.36 212.245 29.84C212.476 29.3067 212.465 28.8333 212.211 28.42C211.98 28.02 211.587 27.66 211.033 27.34C210.479 27.02 209.844 26.7867 209.128 26.64C208.435 26.5067 207.627 26.5067 206.703 26.64C205.802 26.76 204.774 27.0333 203.62 27.46C202.465 27.8867 201.172 28.5133 199.74 29.34C198.308 30.1667 197.211 30.92 196.449 31.6C195.71 32.2667 195.213 32.8733 194.959 33.42C194.729 33.9533 194.717 34.4267 194.925 34.84C195.156 35.2667 195.548 35.64 196.103 35.96ZM201.091 33.08C200.352 32.6533 199.959 32.16 199.913 31.6C199.913 31.04 200.317 30.5267 201.126 30.06C201.934 29.5933 202.811 29.3667 203.758 29.38C204.751 29.3933 205.617 29.6133 206.356 30.04C207.095 30.4667 207.465 30.96 207.465 31.52C207.511 32.08 207.13 32.5933 206.322 33.06C205.513 33.5267 204.613 33.7533 203.62 33.74C202.673 33.7267 201.83 33.5067 201.091 33.08Z" fill="#9D67F5"/>
    <path d="M132.154 158.24C130.883 157.507 129.971 156.7 129.417 155.82C128.886 154.927 128.736 153.987 128.967 153C129.197 152.013 129.821 150.987 130.837 149.92C131.876 148.867 133.331 147.8 135.202 146.72C137.073 145.64 138.909 144.807 140.71 144.22C142.534 143.647 144.289 143.3 145.975 143.18C147.684 143.047 149.289 143.147 150.79 143.48C152.315 143.8 153.712 144.327 154.982 145.06C156.252 145.793 157.164 146.6 157.719 147.48C158.296 148.347 158.469 149.273 158.238 150.26C158.03 151.233 157.418 152.24 156.402 153.28C155.409 154.333 153.977 155.4 152.107 156.48C150.236 157.56 148.377 158.393 146.53 158.98C144.705 159.58 142.938 159.947 141.229 160.08C139.521 160.213 137.892 160.127 136.345 159.82C134.821 159.5 133.424 158.973 132.154 158.24ZM136.103 155.96C136.657 156.28 137.292 156.5 138.008 156.62C138.747 156.753 139.578 156.753 140.502 156.62C141.449 156.473 142.5 156.187 143.654 155.76C144.832 155.32 146.137 154.687 147.569 153.86C149.001 153.033 150.086 152.287 150.825 151.62C151.564 150.953 152.037 150.36 152.245 149.84C152.476 149.307 152.465 148.833 152.211 148.42C151.98 148.02 151.587 147.66 151.033 147.34C150.479 147.02 149.844 146.787 149.128 146.64C148.435 146.507 147.627 146.507 146.703 146.64C145.802 146.76 144.774 147.033 143.62 147.46C142.465 147.887 141.172 148.513 139.74 149.34C138.308 150.167 137.211 150.92 136.449 151.6C135.71 152.267 135.213 152.873 134.959 153.42C134.729 153.953 134.717 154.427 134.925 154.84C135.156 155.267 135.548 155.64 136.103 155.96ZM141.091 153.08C140.352 152.653 139.959 152.16 139.913 151.6C139.913 151.04 140.317 150.527 141.126 150.06C141.934 149.593 142.811 149.367 143.758 149.38C144.751 149.393 145.617 149.613 146.356 150.04C147.095 150.467 147.465 150.96 147.465 151.52C147.511 152.08 147.13 152.593 146.322 153.06C145.513 153.527 144.613 153.753 143.62 153.74C142.673 153.727 141.83 153.507 141.091 153.08Z" fill="#9D67F5"/>
    <path d="M132.154 222.24C130.883 221.507 129.971 220.7 129.417 219.82C128.886 218.927 128.736 217.987 128.967 217C129.197 216.013 129.821 214.987 130.837 213.92C131.876 212.867 133.331 211.8 135.202 210.72C137.073 209.64 138.909 208.807 140.71 208.22C142.534 207.647 144.289 207.3 145.975 207.18C147.684 207.047 149.289 207.147 150.79 207.48C152.315 207.8 153.712 208.327 154.982 209.06C156.252 209.793 157.164 210.6 157.719 211.48C158.296 212.347 158.469 213.273 158.238 214.26C158.03 215.233 157.418 216.24 156.402 217.28C155.409 218.333 153.977 219.4 152.107 220.48C150.236 221.56 148.377 222.393 146.53 222.98C144.705 223.58 142.938 223.947 141.229 224.08C139.521 224.213 137.892 224.127 136.345 223.82C134.821 223.5 133.424 222.973 132.154 222.24ZM136.103 219.96C136.657 220.28 137.292 220.5 138.008 220.62C138.747 220.753 139.578 220.753 140.502 220.62C141.449 220.473 142.5 220.187 143.654 219.76C144.832 219.32 146.137 218.687 147.569 217.86C149.001 217.033 150.086 216.287 150.825 215.62C151.564 214.953 152.037 214.36 152.245 213.84C152.476 213.307 152.465 212.833 152.211 212.42C151.98 212.02 151.587 211.66 151.033 211.34C150.479 211.02 149.844 210.787 149.128 210.64C148.435 210.507 147.627 210.507 146.703 210.64C145.802 210.76 144.774 211.033 143.62 211.46C142.465 211.887 141.172 212.513 139.74 213.34C138.308 214.167 137.211 214.92 136.449 215.6C135.71 216.267 135.213 216.873 134.959 217.42C134.729 217.953 134.717 218.427 134.925 218.84C135.156 219.267 135.548 219.64 136.103 219.96ZM141.091 217.08C140.352 216.653 139.959 216.16 139.913 215.6C139.913 215.04 140.317 214.527 141.126 214.06C141.934 213.593 142.811 213.367 143.758 213.38C144.751 213.393 145.617 213.613 146.356 214.04C147.095 214.467 147.465 214.96 147.465 215.52C147.511 216.08 147.13 216.593 146.322 217.06C145.513 217.527 144.613 217.753 143.62 217.74C142.673 217.727 141.83 217.507 141.091 217.08Z" fill="#E9E9E9"/>
    <path d="M421.246 205V75.904H467.776C474.64 75.904 481.042 76.564 486.982 77.884C493.054 79.204 498.334 81.448 502.822 84.616C507.31 87.652 510.874 91.744 513.514 96.892C516.154 102.04 517.474 108.442 517.474 116.098C517.474 125.602 515.362 133.456 511.138 139.66C507.046 145.732 501.502 150.286 494.506 153.322L523.81 205H491.14L466.39 158.47H450.352V205H421.246ZM450.352 135.304H465.4C473.056 135.304 478.864 133.72 482.824 130.552C486.916 127.252 488.962 122.434 488.962 116.098C488.962 109.762 486.916 105.34 482.824 102.832C478.864 100.324 473.056 99.07 465.4 99.07H450.352V135.304ZM582.322 207.376C575.326 207.376 568.792 206.254 562.72 204.01C556.648 201.634 551.368 198.268 546.88 193.912C542.392 189.424 538.894 184.012 536.386 177.676C533.878 171.34 532.624 164.08 532.624 155.896C532.624 147.976 533.944 140.848 536.584 134.512C539.224 128.044 542.656 122.632 546.88 118.276C551.236 113.788 556.186 110.356 561.73 107.98C567.274 105.604 573.016 104.416 578.956 104.416C585.952 104.416 592.024 105.604 597.172 107.98C602.452 110.356 606.808 113.656 610.24 117.88C613.804 122.104 616.444 127.12 618.16 132.928C619.876 138.604 620.734 144.808 620.734 151.54C620.734 154.18 620.602 156.688 620.338 159.064C620.074 161.44 619.81 163.222 619.546 164.41H560.74C562.06 171.538 564.964 176.818 569.452 180.25C574.072 183.55 579.682 185.2 586.282 185.2C593.278 185.2 600.34 183.022 607.468 178.666L617.17 196.288C612.154 199.72 606.544 202.426 600.34 204.406C594.268 206.386 588.262 207.376 582.322 207.376ZM560.542 145.204H595.984C595.984 139.66 594.73 135.172 592.222 131.74C589.714 128.308 585.49 126.592 579.55 126.592C574.93 126.592 570.838 128.11 567.274 131.146C563.842 134.182 561.598 138.868 560.542 145.204ZM640.847 241.432V106.792H664.607L666.587 116.494H667.379C671.207 113.062 675.497 110.224 680.249 107.98C685.133 105.604 690.149 104.416 695.297 104.416C701.237 104.416 706.583 105.604 711.335 107.98C716.087 110.356 720.113 113.722 723.413 118.078C726.713 122.434 729.221 127.714 730.937 133.918C732.785 139.99 733.709 146.788 733.709 154.312C733.709 162.76 732.521 170.284 730.145 176.884C727.901 183.352 724.799 188.896 720.839 193.516C717.011 198.004 712.589 201.436 707.573 203.812C702.689 206.188 697.607 207.376 692.327 207.376C688.103 207.376 684.011 206.518 680.051 204.802C676.091 202.954 672.395 200.38 668.963 197.08L669.953 212.722V241.432H640.847ZM685.595 183.616C690.611 183.616 694.901 181.372 698.465 176.884C702.029 172.264 703.811 164.872 703.811 154.708C703.811 137.02 698.135 128.176 686.783 128.176C681.107 128.176 675.497 131.146 669.953 137.086V177.28C672.593 179.656 675.233 181.306 677.873 182.23C680.513 183.154 683.087 183.616 685.595 183.616ZM781.079 207.376C776.063 207.376 771.839 206.584 768.407 205C764.975 203.416 762.203 201.238 760.091 198.466C758.111 195.562 756.659 192.13 755.735 188.17C754.811 184.078 754.349 179.524 754.349 174.508V66.202H783.455V175.696C783.455 178.732 783.983 180.844 785.039 182.032C786.227 183.22 787.415 183.814 788.603 183.814C789.263 183.814 789.791 183.814 790.187 183.814C790.715 183.814 791.375 183.682 792.167 183.418L795.731 205C794.147 205.66 792.101 206.188 789.593 206.584C787.217 207.112 784.379 207.376 781.079 207.376ZM811.003 205V106.792H840.109V205H811.003ZM825.457 92.338C820.573 92.338 816.547 90.952 813.379 88.18C810.211 85.276 808.627 81.58 808.627 77.092C808.627 72.604 810.211 68.974 813.379 66.202C816.547 63.43 820.573 62.044 825.457 62.044C830.473 62.044 834.499 63.43 837.535 66.202C840.703 68.974 842.287 72.604 842.287 77.092C842.287 81.58 840.703 85.276 837.535 88.18C834.499 90.952 830.473 92.338 825.457 92.338ZM868.1 205V75.904H912.254C918.986 75.904 925.19 76.432 930.866 77.488C936.674 78.412 941.69 80.128 945.914 82.636C950.27 85.144 953.636 88.444 956.012 92.536C958.52 96.628 959.774 101.776 959.774 107.98C959.774 110.884 959.378 113.788 958.586 116.692C957.794 119.596 956.672 122.302 955.22 124.81C953.768 127.318 951.986 129.562 949.874 131.542C947.894 133.522 945.584 134.974 942.944 135.898V136.69C946.244 137.482 949.28 138.736 952.052 140.452C954.824 142.036 957.266 144.082 959.378 146.59C961.49 149.098 963.14 152.068 964.328 155.5C965.516 158.8 966.11 162.628 966.11 166.984C966.11 173.584 964.79 179.26 962.15 184.012C959.642 188.764 956.078 192.724 951.458 195.892C946.97 198.928 941.69 201.238 935.618 202.822C929.546 204.274 923.012 205 916.016 205H868.1ZM897.206 127.582H910.868C917.996 127.582 923.144 126.196 926.312 123.424C929.612 120.652 931.262 116.956 931.262 112.336C931.262 107.32 929.612 103.756 926.312 101.644C923.012 99.532 917.93 98.476 911.066 98.476H897.206V127.582ZM897.206 182.428H913.64C929.612 182.428 937.598 176.62 937.598 165.004C937.598 159.328 935.618 155.302 931.658 152.926C927.698 150.418 921.692 149.164 913.64 149.164H897.206V182.428ZM993.016 243.412C989.98 243.412 987.406 243.214 985.294 242.818C983.182 242.554 981.136 242.092 979.156 241.432L984.304 219.256C985.228 219.52 986.284 219.784 987.472 220.048C988.66 220.312 989.782 220.444 990.838 220.444C995.722 220.444 999.484 219.256 1002.12 216.88C1004.76 214.504 1006.74 211.402 1008.06 207.574L1009.45 202.426L971.632 106.792H1000.94L1014.99 148.966C1016.45 153.454 1017.77 158.008 1018.95 162.628C1020.14 167.248 1021.4 172 1022.72 176.884H1023.51C1024.56 172.264 1025.62 167.644 1026.68 163.024C1027.86 158.272 1029.05 153.586 1030.24 148.966L1042.12 106.792H1070.04L1035.98 205.99C1033.61 212.194 1031.1 217.606 1028.46 222.226C1025.95 226.978 1022.98 230.872 1019.55 233.908C1016.25 237.076 1012.42 239.452 1008.06 241.036C1003.84 242.62 998.824 243.412 993.016 243.412ZM1123.2 207.376C1117.13 207.376 1111.91 206.452 1107.56 204.604C1103.33 202.756 1099.83 200.182 1097.06 196.882C1094.42 193.582 1092.44 189.622 1091.12 185.002C1089.93 180.25 1089.34 175.036 1089.34 169.36V129.562H1075.88V107.98L1090.92 106.792L1094.29 80.656H1118.45V106.792H1142.01V129.562H1118.45V168.964C1118.45 174.508 1119.57 178.534 1121.81 181.042C1124.19 183.418 1127.29 184.606 1131.12 184.606C1132.7 184.606 1134.29 184.408 1135.87 184.012C1137.59 183.616 1139.1 183.154 1140.42 182.626L1144.98 203.812C1142.34 204.604 1139.24 205.396 1135.67 206.188C1132.11 206.98 1127.95 207.376 1123.2 207.376ZM1201.65 207.376C1194.66 207.376 1188.12 206.254 1182.05 204.01C1175.98 201.634 1170.7 198.268 1166.21 193.912C1161.72 189.424 1158.22 184.012 1155.72 177.676C1153.21 171.34 1151.95 164.08 1151.95 155.896C1151.95 147.976 1153.27 140.848 1155.91 134.512C1158.55 128.044 1161.99 122.632 1166.21 118.276C1170.57 113.788 1175.52 110.356 1181.06 107.98C1186.6 105.604 1192.35 104.416 1198.29 104.416C1205.28 104.416 1211.35 105.604 1216.5 107.98C1221.78 110.356 1226.14 113.656 1229.57 117.88C1233.13 122.104 1235.77 127.12 1237.49 132.928C1239.21 138.604 1240.06 144.808 1240.06 151.54C1240.06 154.18 1239.93 156.688 1239.67 159.064C1239.4 161.44 1239.14 163.222 1238.88 164.41H1180.07C1181.39 171.538 1184.29 176.818 1188.78 180.25C1193.4 183.55 1199.01 185.2 1205.61 185.2C1212.61 185.2 1219.67 183.022 1226.8 178.666L1236.5 196.288C1231.48 199.72 1225.87 202.426 1219.67 204.406C1213.6 206.386 1207.59 207.376 1201.65 207.376ZM1179.87 145.204H1215.31C1215.31 139.66 1214.06 135.172 1211.55 131.74C1209.04 128.308 1204.82 126.592 1198.88 126.592C1194.26 126.592 1190.17 128.11 1186.6 131.146C1183.17 134.182 1180.93 138.868 1179.87 145.204Z" fill="#8A51E6"/>
    <defs>
        <linearGradient id="paint0_linear_205_28" x1="5" y1="177" x2="377" y2="137" gradientUnits="userSpaceOnUse">
            <stop stop-color="#6512EC"/>
            <stop offset="1" stop-color="#A776F7"/>
        </linearGradient>
        <linearGradient id="paint1_linear_205_28" x1="139" y1="259.5" x2="41.5" y2="259.5" gradientUnits="userSpaceOnUse">
            <stop stop-opacity="0.35"/>
            <stop offset="1" stop-opacity="0"/>
        </linearGradient>
        <linearGradient id="paint2_linear_205_28" x1="362" y1="77.5" x2="0.49999" y2="108" gradientUnits="userSpaceOnUse">
            <stop stop-color="white"/>
            <stop offset="1" stop-color="#E6E6E6"/>
        </linearGradient>
        <linearGradient id="paint3_linear_205_28" x1="29" y1="180" x2="139" y2="195" gradientUnits="userSpaceOnUse">
            <stop stop-opacity="0"/>
            <stop offset="1" stop-opacity="0.49"/>
        </linearGradient>
        <linearGradient id="paint4_linear_205_28" x1="397.176" y1="47.75" x2="172.939" y2="71.3121" gradientUnits="userSpaceOnUse">
            <stop stop-color="#E5E5E5"/>
            <stop offset="1" stop-color="white"/>
        </linearGradient>
        <linearGradient id="paint5_linear_205_28" x1="248" y1="107.5" x2="199" y2="111.5" gradientUnits="userSpaceOnUse">
            <stop stop-opacity="0.33"/>
            <stop offset="1" stop-opacity="0"/>
        </linearGradient>
    </defs>
</svg>
