<svg width="440" height="440" viewBox="0 0 440 440" fill="none" xmlns="http://www.w3.org/2000/svg">
    <path d="M49 289L253 187L391 255L183 357L49 289Z" fill="#6936BE"/>
    <path d="M49 289V260L91 254.5L91.5 288L49 289Z" fill="#6936BE"/>
    <path d="M391 255V226L346.5 229.5L344 252L391 255Z" fill="#6936BE"/>
    <path d="M49 260L253 158L391 226L183 328L49 260Z" fill="url(#paint0_linear_104_29)"/>
    <path d="M183 357V328L64.5 267.5V297L183 357Z" fill="url(#paint1_linear_104_29)"/>
    <path d="M81.9136 259.58L86.0358 257.2L91.9595 260.62L104.673 253.28L99.7883 250.46L102.941 248.64C103.795 249 104.569 249.313 105.262 249.58C106.001 249.847 106.693 250.073 107.34 250.26C107.987 250.447 108.61 250.607 109.211 250.74C109.857 250.873 110.515 250.987 111.185 251.08L114.926 253.24L97.0517 263.56L102.04 266.44L97.9177 268.82L81.9136 259.58Z" fill="#E9E9E9"/>
    <path d="M319.914 228.58L324.036 226.2L329.959 229.62L342.673 222.28L337.788 219.46L340.941 217.64C341.795 218 342.569 218.313 343.262 218.58C344.001 218.847 344.693 219.073 345.34 219.26C345.987 219.447 346.61 219.607 347.211 219.74C347.857 219.873 348.515 219.987 349.185 220.08L352.926 222.24L335.052 232.56L340.04 235.44L335.918 237.82L319.914 228.58Z" fill="#E9E9E9"/>
    <path d="M46 221.5L250.5 119L319 153.5L216.5 204.5L285 239L182.5 290L46 221.5Z" fill="#CBCBCB"/>
    <path d="M319 153.5V123.5L263 121L261 128L256.5 154.5L319 153.5Z" fill="#CBCBCB"/>
    <path d="M46 221.5V191.5L106.5 188L107.5 223.5L46 221.5Z" fill="#CBCBCB"/>
    <path d="M285 239V209L233 200.5L229.5 239H285Z" fill="#CBCBCB"/>
    <path d="M46 191.5L250.5 89L319 123.5L216.5 174.5L285 209L182.5 260L46 191.5Z" fill="url(#paint2_linear_104_29)"/>
    <path d="M182.5 290V260L68 202.5L65 231L182.5 290Z" fill="url(#paint3_linear_104_29)"/>
    <path d="M387 160L319 126L217 177L285 211.5L387 160Z" fill="#CBCBCB"/>
    <path d="M387 160V129L331.5 121.5L328 159.5L387 160Z" fill="#CBCBCB"/>
    <path d="M216.5 176.5L217 146L268 137.5L273 154.5L277 177.5L216.5 176.5Z" fill="#CBCBCB"/>
    <path d="M387 129L319 95L217 146L285 180.5L387 129Z" fill="url(#paint4_linear_104_29)"/>
    <path d="M285 211.5V180.5L227 151L225.5 181L285 211.5Z" fill="url(#paint5_linear_104_29)"/>
    <path d="M77.9136 190.58L82.0358 188.2L87.9595 191.62L100.673 184.28L95.7883 181.46L98.9407 179.64C99.7951 180 100.569 180.313 101.262 180.58C102.001 180.847 102.693 181.073 103.34 181.26C103.987 181.447 104.61 181.607 105.211 181.74C105.857 181.873 106.515 181.987 107.185 182.08L110.926 184.24L93.0517 194.56L98.04 197.44L93.9177 199.82L77.9136 190.58Z" fill="#9D67F5"/>
    <path d="M321.914 131.58L326.036 129.2L331.959 132.62L344.673 125.28L339.788 122.46L342.941 120.64C343.795 121 344.569 121.313 345.262 121.58C346.001 121.847 346.693 122.073 347.34 122.26C347.987 122.447 348.61 122.607 349.211 122.74C349.857 122.873 350.515 122.987 351.185 123.08L354.926 125.24L337.052 135.56L342.04 138.44L337.918 140.82L321.914 131.58Z" fill="#9D67F5"/>
    <path d="M236.154 121.24C234.883 120.507 233.971 119.7 233.417 118.82C232.886 117.927 232.736 116.987 232.967 116C233.197 115.013 233.821 113.987 234.837 112.92C235.876 111.867 237.331 110.8 239.202 109.72C241.073 108.64 242.909 107.807 244.71 107.22C246.534 106.647 248.289 106.3 249.975 106.18C251.684 106.047 253.289 106.147 254.79 106.48C256.315 106.8 257.712 107.327 258.982 108.06C260.252 108.793 261.164 109.6 261.719 110.48C262.296 111.347 262.469 112.273 262.238 113.26C262.03 114.233 261.418 115.24 260.402 116.28C259.409 117.333 257.977 118.4 256.107 119.48C254.236 120.56 252.377 121.393 250.53 121.98C248.705 122.58 246.938 122.947 245.229 123.08C243.521 123.213 241.892 123.127 240.345 122.82C238.821 122.5 237.424 121.973 236.154 121.24ZM240.103 118.96C240.657 119.28 241.292 119.5 242.008 119.62C242.747 119.753 243.578 119.753 244.502 119.62C245.449 119.473 246.5 119.187 247.654 118.76C248.832 118.32 250.137 117.687 251.569 116.86C253.001 116.033 254.086 115.287 254.825 114.62C255.564 113.953 256.037 113.36 256.245 112.84C256.476 112.307 256.465 111.833 256.211 111.42C255.98 111.02 255.587 110.66 255.033 110.34C254.479 110.02 253.844 109.787 253.128 109.64C252.435 109.507 251.627 109.507 250.703 109.64C249.802 109.76 248.774 110.033 247.62 110.46C246.465 110.887 245.172 111.513 243.74 112.34C242.308 113.167 241.211 113.92 240.449 114.6C239.71 115.267 239.213 115.873 238.959 116.42C238.729 116.953 238.717 117.427 238.925 117.84C239.156 118.267 239.548 118.64 240.103 118.96ZM245.091 116.08C244.352 115.653 243.959 115.16 243.913 114.6C243.913 114.04 244.317 113.527 245.126 113.06C245.934 112.593 246.811 112.367 247.758 112.38C248.751 112.393 249.617 112.613 250.356 113.04C251.095 113.467 251.465 113.96 251.465 114.52C251.511 115.08 251.13 115.593 250.322 116.06C249.513 116.527 248.613 116.753 247.62 116.74C246.673 116.727 245.83 116.507 245.091 116.08Z" fill="#9D67F5"/>
    <path d="M176.154 241.24C174.883 240.507 173.971 239.7 173.417 238.82C172.886 237.927 172.736 236.987 172.967 236C173.197 235.013 173.821 233.987 174.837 232.92C175.876 231.867 177.331 230.8 179.202 229.72C181.073 228.64 182.909 227.807 184.71 227.22C186.534 226.647 188.289 226.3 189.975 226.18C191.684 226.047 193.289 226.147 194.79 226.48C196.315 226.8 197.712 227.327 198.982 228.06C200.252 228.793 201.164 229.6 201.719 230.48C202.296 231.347 202.469 232.273 202.238 233.26C202.03 234.233 201.418 235.24 200.402 236.28C199.409 237.333 197.977 238.4 196.107 239.48C194.236 240.56 192.377 241.393 190.53 241.98C188.705 242.58 186.938 242.947 185.229 243.08C183.521 243.213 181.892 243.127 180.345 242.82C178.821 242.5 177.424 241.973 176.154 241.24ZM180.103 238.96C180.657 239.28 181.292 239.5 182.008 239.62C182.747 239.753 183.578 239.753 184.502 239.62C185.449 239.473 186.5 239.187 187.654 238.76C188.832 238.32 190.137 237.687 191.569 236.86C193.001 236.033 194.086 235.287 194.825 234.62C195.564 233.953 196.037 233.36 196.245 232.84C196.476 232.307 196.465 231.833 196.211 231.42C195.98 231.02 195.587 230.66 195.033 230.34C194.479 230.02 193.844 229.787 193.128 229.64C192.435 229.507 191.627 229.507 190.703 229.64C189.802 229.76 188.774 230.033 187.62 230.46C186.465 230.887 185.172 231.513 183.74 232.34C182.308 233.167 181.211 233.92 180.449 234.6C179.71 235.267 179.213 235.873 178.959 236.42C178.729 236.953 178.717 237.427 178.925 237.84C179.156 238.267 179.548 238.64 180.103 238.96ZM185.091 236.08C184.352 235.653 183.959 235.16 183.913 234.6C183.913 234.04 184.317 233.527 185.126 233.06C185.934 232.593 186.811 232.367 187.758 232.38C188.751 232.393 189.617 232.613 190.356 233.04C191.095 233.467 191.465 233.96 191.465 234.52C191.511 235.08 191.13 235.593 190.322 236.06C189.513 236.527 188.613 236.753 187.62 236.74C186.673 236.727 185.83 236.507 185.091 236.08Z" fill="#9D67F5"/>
    <path d="M176.154 305.24C174.883 304.507 173.971 303.7 173.417 302.82C172.886 301.927 172.736 300.987 172.967 300C173.197 299.013 173.821 297.987 174.837 296.92C175.876 295.867 177.331 294.8 179.202 293.72C181.073 292.64 182.909 291.807 184.71 291.22C186.534 290.647 188.289 290.3 189.975 290.18C191.684 290.047 193.289 290.147 194.79 290.48C196.315 290.8 197.712 291.327 198.982 292.06C200.252 292.793 201.164 293.6 201.719 294.48C202.296 295.347 202.469 296.273 202.238 297.26C202.03 298.233 201.418 299.24 200.402 300.28C199.409 301.333 197.977 302.4 196.107 303.48C194.236 304.56 192.377 305.393 190.53 305.98C188.705 306.58 186.938 306.947 185.229 307.08C183.521 307.213 181.892 307.127 180.345 306.82C178.821 306.5 177.424 305.973 176.154 305.24ZM180.103 302.96C180.657 303.28 181.292 303.5 182.008 303.62C182.747 303.753 183.578 303.753 184.502 303.62C185.449 303.473 186.5 303.187 187.654 302.76C188.832 302.32 190.137 301.687 191.569 300.86C193.001 300.033 194.086 299.287 194.825 298.62C195.564 297.953 196.037 297.36 196.245 296.84C196.476 296.307 196.465 295.833 196.211 295.42C195.98 295.02 195.587 294.66 195.033 294.34C194.479 294.02 193.844 293.787 193.128 293.64C192.435 293.507 191.627 293.507 190.703 293.64C189.802 293.76 188.774 294.033 187.62 294.46C186.465 294.887 185.172 295.513 183.74 296.34C182.308 297.167 181.211 297.92 180.449 298.6C179.71 299.267 179.213 299.873 178.959 300.42C178.729 300.953 178.717 301.427 178.925 301.84C179.156 302.267 179.548 302.64 180.103 302.96ZM185.091 300.08C184.352 299.653 183.959 299.16 183.913 298.6C183.913 298.04 184.317 297.527 185.126 297.06C185.934 296.593 186.811 296.367 187.758 296.38C188.751 296.393 189.617 296.613 190.356 297.04C191.095 297.467 191.465 297.96 191.465 298.52C191.511 299.08 191.13 299.593 190.322 300.06C189.513 300.527 188.613 300.753 187.62 300.74C186.673 300.727 185.83 300.507 185.091 300.08Z" fill="#E9E9E9"/>
    <defs>
        <linearGradient id="paint0_linear_104_29" x1="49" y1="260" x2="421" y2="220" gradientUnits="userSpaceOnUse">
            <stop stop-color="#6512EC"/>
            <stop offset="1" stop-color="#A776F7"/>
        </linearGradient>
        <linearGradient id="paint1_linear_104_29" x1="183" y1="342.5" x2="85.5" y2="342.5" gradientUnits="userSpaceOnUse">
            <stop stop-opacity="0.35"/>
            <stop offset="1" stop-opacity="0"/>
        </linearGradient>
        <linearGradient id="paint2_linear_104_29" x1="406" y1="160.5" x2="44.5" y2="191" gradientUnits="userSpaceOnUse">
            <stop stop-color="white"/>
            <stop offset="1" stop-color="#E6E6E6"/>
        </linearGradient>
        <linearGradient id="paint3_linear_104_29" x1="73" y1="263" x2="183" y2="278" gradientUnits="userSpaceOnUse">
            <stop stop-opacity="0"/>
            <stop offset="1" stop-opacity="0.49"/>
        </linearGradient>
        <linearGradient id="paint4_linear_104_29" x1="441.176" y1="130.75" x2="216.939" y2="154.312" gradientUnits="userSpaceOnUse">
            <stop stop-color="#E5E5E5"/>
            <stop offset="1" stop-color="white"/>
        </linearGradient>
        <linearGradient id="paint5_linear_104_29" x1="292" y1="190.5" x2="243" y2="194.5" gradientUnits="userSpaceOnUse">
            <stop stop-opacity="0.33"/>
            <stop offset="1" stop-opacity="0"/>
        </linearGradient>
    </defs>
</svg>
